<svg width="287" height="70" viewBox="0 0 287 70" fill="none" xmlns="http://www.w3.org/2000/svg">
<g clip-path="url(#clip0_1_9)">
<path d="M28.5139 1.90735e-06V56.8921H64.619L28.5139 1.90735e-06Z" fill="#2E3030"/>
<path d="M25.0268 4.51248L0 56.8921H25.0268V4.51248Z" fill="#2E3030"/>
<path d="M4.58163 61.2689L12.5134 69.7473H30.8386H49.1651L57.0969 61.2689H30.8386H4.58163Z" fill="#2E3030"/>
<path d="M79.8691 17.727H101.382V24.8904H87.0552V32.076H97.8002V39.2394H87.0552V46.4028V53.5885H79.8696V39.2391V32.0757L79.8691 17.727ZM104.051 17.727H111.237V46.403H125.563V53.5886H104.051L104.051 17.727ZM140.424 41.7307H146.765L143.606 34.2781L140.424 41.7307ZM137.487 48.0707L137.398 48.3377L135.063 53.4989H133.817H133.527H128.856H127.321L143.582 17.0594L159.889 53.4989H158.354H153.682H153.37H152.124L149.811 48.3155L149.7 48.0708H137.486L137.487 48.0707ZM176.486 17.5482L176.508 17.6149C179 17.6149 181.336 18.0821 183.538 19.0387C185.74 19.9953 187.676 21.2857 189.344 22.9096L184.228 28.0263C182.07 25.8906 179.511 24.8228 176.553 24.8228C173.549 24.8228 170.991 25.8906 168.878 28.0263C166.764 30.1619 165.696 32.7203 165.696 35.7013C165.696 38.7046 166.764 41.2629 168.878 43.3764C170.991 45.4898 173.549 46.5576 176.553 46.5576C178.911 46.5576 181.024 45.8902 182.871 44.5333C184.717 43.1763 186.03 41.441 186.786 39.3276H176.53V32.0975H186.786H190.991H194.283C194.528 33.232 194.639 34.4334 194.639 35.7014C194.639 40.6846 192.859 44.9559 189.3 48.4926C185.74 52.0293 181.469 53.8095 176.486 53.8095C171.503 53.8095 167.231 52.0298 163.695 48.4926C160.158 44.9554 158.378 40.6841 158.378 35.7014C158.378 30.7188 160.157 26.4469 163.695 22.8875C167.232 19.328 171.503 17.5482 176.486 17.5482ZM207.92 46.5136L207.898 46.4691C209.877 46.4691 211.524 44.8228 211.524 42.8429C211.524 41.3078 210.923 40.3291 209.699 39.8841C207.119 38.9275 207.742 39.1499 205.228 38.2823C202.581 37.3702 200.133 35.5682 198.487 33.3213C197.508 31.9864 197.019 30.3402 197.019 28.3603C197.019 25.3792 198.087 22.8209 200.222 20.6852C202.358 18.5496 204.916 17.4817 207.92 17.4817C210.901 17.4817 213.459 18.5496 215.595 20.6852C217.73 22.8209 218.798 25.3792 218.798 28.3603H211.568C211.568 26.4025 209.922 24.7563 207.964 24.7563C205.984 24.7563 204.338 26.4025 204.338 28.3825C204.338 29.6728 204.85 30.6516 205.895 31.319C208.031 32.6982 207.786 32.4313 210.344 33.1877C213.103 33.9885 215.595 35.7015 217.308 37.9039C218.309 39.1942 218.82 40.8627 218.82 42.8871C218.82 45.8903 217.753 48.4487 215.617 50.5843C213.481 52.72 210.923 53.7878 207.942 53.7878C204.939 53.7878 202.38 52.72 200.245 50.5843C198.109 48.4487 197.041 45.8903 197.041 42.8871H204.293C204.293 44.8892 205.918 46.5136 207.92 46.5136ZM222.113 17.727H229.299V32.0764H240.044V17.727H247.229V53.5879H240.044V39.2385H229.299V53.5879H222.113V17.727ZM250.789 53.5879V17.727H257.974V53.5879H250.789ZM261.534 53.5879V42.8206V30.2732V17.7258H268.719H274.081C277.529 17.7258 280.488 18.9493 282.957 21.4187C285.426 23.8881 286.65 26.8468 286.65 30.2951C286.65 33.7433 285.426 36.7021 282.957 39.1491C280.488 41.5962 277.529 42.8198 274.081 42.8198H268.719V53.5871L261.534 53.5879ZM268.719 35.6575L274.081 35.6797C275.571 35.6797 276.839 35.1458 277.885 34.1002C278.93 33.0547 279.464 31.7865 279.464 30.2961C279.464 28.8278 278.93 27.5599 277.885 26.492C276.839 25.4242 275.571 24.8902 274.081 24.8902H268.719V30.2739V35.6575Z" fill="#2E3030"/>
</g>
<defs>
<clipPath id="clip0_1_9">
<rect width="286.65" height="69.7473" fill="white"/>
</clipPath>
</defs>
</svg>
